<svg version="1" xmlns="http://www.w3.org/2000/svg" width="3333.333" height="3333.333" viewBox="0 0 2500.000000 2500.000000"><path d="M1222.4 21.5c-16.8 1.9-22.8 3-38.9 7.5-49.8 13.8-92.9 40.8-125.8 78.8-33.9 39.2-54.2 85.2-60.1 136.2-.9 7.4-1.6 14.4-1.6 15.6 0 2 .6 2.1 16.2 2.8 18.3.7 39.1 3.5 51.8 7 9.3 2.5 9.1 2.7-3 4.1-8.8 1.1-61.2 10.1-77 13.4-47.7 9.7-95.4 23.4-139 39.9-33.8 12.8-70.9 31.3-94.6 47.2-19.1 12.8-30.6 22.1-44.5 36-20.8 20.8-31 36.7-45.1 70.5-4.5 10.8-16.6 47.7-19.8 60.5-.6 2.5-2.4 9.2-4 15-19.2 71.1-45.6 214.4-65.5 355.5-1.9 13.7-3.9 27.2-4.5 30-.5 2.7-2.3 16-4 29.5-1.7 13.5-3.3 25.2-3.5 26-.3.8-1.8 12.5-3.5 26-1.6 13.5-3.4 27.4-4 31-1.9 11.8-14.8 119.7-19.5 163.5-1.9 17.6-3.9 35.1-4.5 39-.5 3.8-2.1 18.7-3.5 33s-3.2 31.4-4 38c-.8 6.6-2.8 26.4-4.5 44-1.7 17.6-3.5 36-4 41-.5 4.9-2.4 24.7-4 44-1.7 19.2-3.8 42.4-4.6 51.4-.8 9-1.2 16.6-1 16.9.3.2 3.1-.4 6.3-1.3 16.5-4.9 63.1-14.7 96.8-20.4 12.7-2.2 24.1-4.2 25.5-4.5 2.2-.6 43.6-5.9 66.5-8.6 29-3.4 100.4-7.7 140.5-8.5 50.5-1 115.7 1.8 175.5 7.5 25.5 2.4 82.2 9.7 84.2 10.8.9.5-18.5 1.2-45.8 1.5-58.2.8-94.6 2.5-136.9 6.7-10.7 1-29.2 2.9-41 4-11.8 1.2-22.2 2.3-23 2.5-.8.3-13.6 2.1-28.5 4-14.8 1.9-27.8 3.8-28.7 4.1-.9.3-12.4 2.2-25.5 4.4-28.3 4.6-60.8 10.6-64.3 12-1.4.5-7.4 1.9-13.5 3-9.8 1.9-26.2 5.8-44 10.3-27.8 7.1-34.3 8.9-36 9.7-1.1.5-5.6 1.8-10 3-15 3.9-52.7 16.2-75.5 24.5-6.9 2.5-15.6 5.7-19.4 7-3.8 1.4-8 3.2-9.3 4-1.2.8-35.6 51.6-76.4 112.8-40.8 61.1-74.5 111.4-74.9 111.7-1 .7-4 7.1-4 8.5 0 .6-10.9 34-24.3 74.3-15.4 46.6-23.8 73.3-23.1 73.6.8.3.8 2.2.1 6.7-2.5 16.7 5.7 44.7 18.6 63.9 17.6 26 49.7 53.4 89.7 76.5 10.5 6.1 56.8 29.5 58.3 29.5.4 0 3 1.1 5.9 2.4 5.6 2.6 24.3 10.1 39.3 15.9 27.2 10.5 79 26.6 119 37.1l16 4.2.1-30.6c.1-22.5.6-33.6 1.9-42.5.9-6.6 1.7-13.3 1.8-14.9l.2-2.9-21.5-5.8c-66.2-17.6-109.8-34-147.2-55.5-26.1-15-46.1-34.8-52.9-52.3-2.9-7.4-3.2-22.2-.6-29.7 5.4-15.5 19.8-31.5 42.7-47.1 8.1-5.5 30.5-17.8 39-21.3 3-1.3 6-2.7 6.5-3.1 1.4-1 16.6-7.2 29.5-12 38.5-14.5 83.4-27.2 135.5-38.5 8.8-1.9 16.9-3.7 18-4 4.1-1.1 39.8-7.7 62-11.4 12.7-2.1 25.9-4.3 29.5-4.9 3.6-.7 16.4-2.5 28.5-4.2 12.1-1.7 24.7-3.4 28-3.9 3.3-.5 17.3-2 31-3.4 13.8-1.4 27.5-3.1 30.5-3.6 3-.6 19.7-2.2 37-3.5 17.3-1.4 38-3.2 46-4 8-.8 22.6-1.9 32.5-2.5 37.5-2.1 55.2-3 61-2.9 5.9 0 5.8.1-5.3 2.4-6.2 1.3-12.1 2.6-13 3-.9.4-6.6 2.2-12.7 4-17.4 5.2-31.4 10.9-50 20.2-7.7 3.8-21.7 12.2-22.6 13.6-.5.6-6.7 25.4-8.4 33.3-.4 1.9-1.8 2.2-15.2 3.8-32.7 4-70.6 16-100.8 32-59.5 31.5-107.2 82.4-134 143.1-15.3 34.6-22.4 64.7-25.5 107.6-1.9 25.8 2 62.1 9.6 90.4 10.6 39.4 27.4 73.6 51.8 105.5 11 14.4 12.1 15.6 27.5 31 55.4 55.3 131 86.3 210.1 86.3 48.2 0 94-11.1 137-33.2 53.5-27.5 98.1-71.3 126.6-124.6 6.6-12.3 14.2-29.4 17.7-40l2.4-7 25.4-.7c89.9-2.4 124.9-3.8 148.9-5.8 6.9-.6 25.6-1.9 41.5-3.1 16-1.1 35.5-2.6 43.5-3.4 26.6-2.6 63.4-6.5 71-7.5 34-4.3 62.9-8.1 65-8.6 1.3-.3 13.9-2.3 28-4.5 84.1-12.8 169.6-31.9 239.5-53.3 24.8-7.6 73.9-24.8 83.2-29.2 1.8-.8 5-2.1 7.1-2.8 12.9-4.6 56.5-25.7 74.8-36.2 60.4-34.8 96.2-72.2 107-111.9 2.3-8.4 2.8-12 2.8-22.5 0-13.4-2.2-23.6-7.9-38-2.8-7-7.9-21.2-36.8-103.8-12.5-35.7-13.3-37.7-16.7-40.7-1.2-1.1-16-22.7-32.9-48s-48.9-73.1-71-106.2l-40.2-60.2-2.5-31.3c-1.3-17.2-2.8-35.8-3.4-41.3-.5-5.5-2.1-22.8-3.5-38.5s-3.2-35.3-4-43.5c-.8-8.3-3.1-31.7-5-52-1.9-20.4-3.7-38.1-4-39.5-.3-1.4-1.9-16.9-3.5-34.5-1.7-17.6-3.5-35.2-4-39-.6-3.9-2.6-22.1-4.5-40.5-5-48-11.2-101.4-22.9-197.7-1.9-15.6-3.7-29.5-4-31-.4-1.6-2.2-15-4.1-29.8-5.1-39.9-16.6-121.8-19-135.5-.8-4.7-2.6-16.4-4-26-1.4-9.6-3.4-22.5-4.5-28.5-1.1-6.1-3.1-17.8-4.4-26-4.1-25.1-9.6-56.6-11.1-63.5-.8-3.6-2.8-13.9-4.5-23-2.7-15-6.4-33.4-13.4-66.5-3.2-14.9-8.9-38.6-12.6-52.5-1.6-5.8-3.6-13.4-4.5-17-6.9-27.4-20-64.7-29.4-83.9-12.6-25.8-40.5-55.6-75.3-80.6-56.5-40.5-144.1-74.3-242.8-93.6-9.6-1.9-8.6.1-9.3-18.1-.9-20.9-2.7-34.4-7.2-52.1-6.8-26.9-16.4-49.7-30.4-72-34.3-54.8-85.6-93.5-147.2-111-6.9-2-16.4-4.3-21-5.2-23-4.4-54.5-5.6-78.5-3zm55.1 133.3c15.6 3.4 33.6 12 47.5 22.7 7 5.5 21.5 20.4 26.6 27.5 5.8 8 12.7 20.3 16.8 30 3.5 8.4 9.2 27.8 8.3 28.6-.2.3-11.6-.3-25.3-1.1-69.2-4.4-130.8-3.8-206.9 1.9-9.9.8-18.2 1.3-18.3 1.1-.2-.2 1.2-5.9 3.1-12.7 7.3-25.3 19.7-46.7 37-64 20.3-20.4 45.1-32.7 72.7-36.2 7.4-.9 29.7.4 38.5 2.2zM1315 1809c31.6.5 64 1.4 72 2 8 .6 30.3 1.7 49.5 2.6 37.3 1.7 63.5 3.3 91 5.8 9.4.8 28.7 2.5 43 3.6s28.3 2.5 31 3c2.8.5 18.3 2.3 34.5 4 16.2 1.7 30.2 3.3 31 3.6.8.3 14.1 2.3 29.5 4.5 36.6 5.1 103.1 16.4 114 19.3 1.1.3 9.2 2.1 18 4 23.6 5.1 45.3 10.3 48.3 11.5 1.5.6 8.3 2.4 15.2 4.1 6.9 1.7 13.4 3.5 14.5 4 1.1.5 6.5 2.1 12 3.6 5.5 1.4 11.4 3.2 13 3.9 1.7.7 7.7 2.9 13.5 4.7 68.6 22.4 118.3 53.4 133.6 83.4 20.2 39.7-18.7 81.3-108.1 115.8-23.8 9.2-37.5 13.9-62.5 21.2-34.6 10.1-83.1 21.4-124 28.9-10.2 1.8-20.5 3.8-23 4.4-2.5.5-13.6 2.4-24.7 4-11.1 1.7-20.8 3.3-21.5 3.6-.7.3-13.2 2-27.8 4-14.6 1.9-29.6 3.9-33.5 4.5-3.8.5-19.8 2.4-35.5 4.1-15.7 1.7-32.1 3.5-36.5 3.9-12 1.4-82 6.9-106.5 8.5-38.8 2.5-143.6 6.5-170.4 6.5h-14.2l-1.2-16.8c-1.6-21.8-3.4-33.3-8.2-52.2-8.7-34-20.4-60.7-40.2-91.5-21.2-33.1-56.2-67.4-90.1-88.4-4.8-3-8.7-6-8.5-6.6.2-.7 7.1-28.2 15.3-61.3l15-60.2 26.5-.2c14.6-.2 33.7-.4 42.5-.6 8.8-.1 41.9.3 73.5.8z"/></svg>